Coordinates
version=1
nRows=6
nColumns=36
inDegrees=yes

Units are S.I. units (second, meters, Newtons, ...)
If the header above contains a line with 'inDegrees', this indicates whether rotational values are in degrees (yes) or radians (no).

endheader
time	pelvis_tilt	pelvis_list	pelvis_rotation	pelvis_tx	pelvis_ty	pelvis_tz	hip_flexion_r	hip_adduction_r	hip_rotation_r	knee_angle_r	knee_angle_r_beta	ankle_angle_r	subtalar_angle_r	mtp_angle_r	hip_flexion_l	hip_adduction_l	hip_rotation_l	knee_angle_l	knee_angle_l_beta	ankle_angle_l	subtalar_angle_l	mtp_angle_l	lumbar_extension	lumbar_bending	lumbar_rotation	arm_flex_r	arm_add_r	arm_rot_r	elbow_flex_r	pro_sup_r	arm_flex_l	arm_add_l	arm_rot_l	elbow_flex_l	pro_sup_l
      0.39000000	     -1.33437004	     -1.91291905	      2.02211166	      0.29478360	      1.04162430	     -0.31481601	     -0.74962641	      6.19817756	     -2.89354494	      6.20808131	      0.10835146	      7.67856240	     -9.36466553	     -5.94059520	     30.54668468	     -7.39813703	     -7.21031400	     53.61064160	      0.93568221	     -4.16472144	     -6.57023531	     -5.94059520	    -13.10724156	      0.29924976	      4.96448626	     -1.63605797	     -8.73561640	    -12.11514269	     45.53745631	    109.59813200	    -15.91434909	    -10.29882456	     -7.39909995	     35.88020149	    109.39501567
      0.40000000	     -1.28235656	     -1.89889104	      1.81041210	      0.30425882	      1.04120150	     -0.31393782	     -1.63449569	      6.26307337	     -2.61738151	      5.77763791	      0.10083880	      8.07378435	     -9.08137942	     -6.00695945	     30.53570797	     -7.20886053	     -7.58253251	     50.44073345	      0.88035688	     -4.57185077	     -7.50564523	     -6.00695945	    -13.21981799	     -0.24397921	      4.95916269	     -1.21619483	     -8.92335260	    -11.23171075	     45.66712799	    109.49495838	    -16.52689449	     -9.95653095	     -9.39050844	     36.47481202	    108.92827314
      0.41000000	     -1.35758978	     -1.93937374	      1.52451467	      0.31377525	      1.04038859	     -0.31292283	     -2.33861477	      6.38015415	     -2.18385664	      5.43340383	      0.09483079	      8.41305084	     -9.04631821	     -6.06030317	     30.54842170	     -7.13473106	     -7.99849630	     47.10159533	      0.82207792	     -4.62258912	     -7.85217422	     -6.06030317	    -13.14940259	     -0.73265688	      5.25460312	     -1.06483127	     -9.11291559	    -10.67705175	     46.00917963	    109.43623719	    -16.82800999	     -9.83518209	    -10.34100828	     36.60296174	    108.70654891
      0.42000000	     -1.47070628	     -2.03010632	      1.20352575	      0.32331096	      1.03930198	     -0.31191041	     -2.96964252	      6.54086322	     -1.70656361	      5.15937622	      0.09004810	      8.75647171	     -9.08052979	     -6.08518046	     30.48468437	     -7.12762495	     -8.40278171	     43.56869076	      0.76041710	     -4.67375509	     -8.02673102	     -6.08518046	    -13.02511387	     -1.18672088	      5.65704963	     -1.00381709	     -9.29512089	    -10.28292377	     46.45347582	    109.45294928	    -17.01686155	     -9.76836143	    -11.01689264	     36.62575079	    108.57595850
      0.43000000	     -1.74297535	     -2.21408490	      0.94618901	      0.33287892	      1.03771909	     -0.31098782	     -3.44130280	      6.79256743	     -1.24210418	      4.85967538	      0.08481734	      9.02996948	     -9.06013141	     -6.09866641	     30.56774464	     -7.17900073	     -8.64504645	     39.96849361	      0.69758181	     -4.66733572	     -8.04775794	     -6.09866641	    -12.69784992	     -1.53095537	      5.99587748	     -1.00211840	     -9.45201813	     -9.95647966	     46.89709267	    109.49031870	    -17.21636995	     -9.72777908	    -11.56705415	     36.69505632	    108.48777600
      0.44000000	     -1.83360686	     -2.36709459	      0.62266258	      0.34257841	      1.03628513	     -0.31003403	     -4.10765100	      6.99815077	     -0.82708953	      4.59261380	      0.08015623	      9.38864818	     -9.07424133	     -6.11581948	     30.28875233	     -7.25788428	     -9.03397452	     36.14168304	      0.63079137	     -4.88033315	     -8.08471314	     -6.11581948	    -12.58072633	     -1.93720569	      6.33470508	     -0.94938453	     -9.63395836	     -9.55382159	     47.34334770	    109.53161753	    -17.37884251	     -9.63403215	    -12.37649392	     36.82926398	    108.37736098
